<!-- Generator: Adobe Illustrator 19.2.0, SVG Export Plug-In  -->
<svg version="1.1"
	 xmlns="http://www.w3.org/2000/svg" xmlns:xlink="http://www.w3.org/1999/xlink" xmlns:a="http://ns.adobe.com/AdobeSVGViewerExtensions/3.0/"
	 x="0px" y="0px" width="31px" height="6.7px" viewBox="0 0 31 6.7" style="enable-background:new 0 0 31 6.7;"
	 xml:space="preserve">
<style type="text/css">
	.st0{fill:#FFFFFF;}
</style>
<defs>
</defs>
<g>
	<path class="st0" d="M6,5.6c-0.7,0.7-1.6,1-2.6,1S1.6,6.4,1,5.8C0.3,5.2,0,4.3,0,3.3c0-1,0.3-1.8,1-2.4C1.6,0.3,2.4,0,3.3,0
		c0.9,0,1.6,0.3,2.3,0.8S6.5,2.1,6.5,3v1H1.8C1.8,4.3,2,4.6,2.3,4.8C2.6,5.1,3,5.2,3.4,5.2C4,5.2,4.5,5,4.9,4.5L6,5.6z M4.2,1.8
		C4,1.6,3.7,1.5,3.3,1.5s-0.7,0.1-1,0.3S1.9,2.3,1.8,2.7h2.8C4.6,2.3,4.5,2,4.2,1.8z"/>
	<path class="st0" d="M9.4,6.6L6.9,0.1h1.9l1.6,4.1L12,0.1h1.9l-2.6,6.5H9.4z"/>
	<path class="st0" d="M20.3,5.6c-0.7,0.7-1.6,1-2.6,1S16,6.4,15.3,5.8c-0.6-0.6-1-1.4-1-2.4c0-1,0.3-1.8,1-2.4C16,0.3,16.8,0,17.6,0
		c0.9,0,1.6,0.3,2.3,0.8s0.9,1.3,0.9,2.2v1h-4.7c0.1,0.4,0.2,0.6,0.6,0.9c0.3,0.2,0.7,0.3,1.1,0.3c0.6,0,1.2-0.2,1.6-0.6L20.3,5.6z
		 M18.6,1.8c-0.2-0.2-0.5-0.3-0.9-0.3s-0.7,0.1-1,0.3s-0.5,0.5-0.5,0.9H19C19,2.3,18.8,2,18.6,1.8z"/>
	<path class="st0" d="M25.5,1.7c-0.5,0-0.9,0.2-1.2,0.6c-0.3,0.4-0.4,0.9-0.4,1.5v2.8h-1.8V0.1h1.8V1c0.2-0.3,0.5-0.5,0.9-0.7
		C25.1,0.1,25.5,0,25.9,0l0,1.7H25.5z"/>
	<path class="st0" d="M28.2,5.6V4h-1.6V2.9h1.6V1.2h1.2v1.6H31V4h-1.6v1.6H28.2z"/>
</g>
</svg>
